<svg xmlns="http://www.w3.org/2000/svg" width="256" height="256"><path fill-opacity=".016" d="M0 128.004v128.004l128.25-.254 128.25-.254.254-127.75L257.008 0H0v128.004m.485.496c0 70.4.119 99.053.265 63.672.146-35.38.146-92.98 0-128C.604 29.153.485 58.1.485 128.5" fill="#1976D2" fill-rule="evenodd"/><path fill-opacity=".151" d="M156.935 3.122c-.934 1.744-.784 2.474.843 4.1 1.626 1.627 2.356 1.777 4.1.843 2.344-1.254 2.777-4.01.922-5.865-1.855-1.855-4.611-1.422-5.865.922M192.07 4.25c.039 1.788.433 4.15.877 5.25 1.294 3.21-.472 4.47-4.648 3.317-4.333-1.196-11.682-.266-13.3 1.684-.64.772-1.005 2.212-.811 3.201.303 1.544 1.22 1.749 6.496 1.453 10.487-.588 14.096 2.277 6.164 4.895-2.283.754-5.658 2.791-7.5 4.528-4.217 3.978-4.567 8.893-.935 13.116 2.084 2.423 3.142 2.806 7.75 2.806 2.935 0 7.025-.358 9.087-.795 3.302-.701 3.75-.568 3.75 1.115 0 2.936 3.839 7.18 6.496 7.18 2.104 0 8.501-5.134 8.506-6.827.002-.37 1.358-.721 3.014-.78 3.807-.136 6.679-2.704 7.543-6.747.37-1.73 2.196-4.557 4.057-6.281 4.181-3.873 4.437-7.392.749-10.292-1.449-1.14-3.523-2.073-4.608-2.073-1.546 0-1.852-.487-1.413-2.25 1.326-5.324 1.851-10.836 1.257-13.203-.622-2.478-.867-2.547-9.097-2.547-9.221 0-10.443.736-12.045 7.25-.372 1.512-1.281 2.75-2.02 2.75-1.529 0-3.602-6.413-2.772-8.575.411-1.071-.349-1.425-3.06-1.425-3.417 0-3.603.171-3.537 3.25m-82.308 17.646C101.751 24.521 95.186 29 87.669 36.967c-16.745 17.752-18.115 31.721-8.192 83.578.838 4.375 1.523 8.566 1.523 9.313 0 .746-2.653-1.098-5.895-4.1C59.577 111.382 42.259 98.936 29 92.624c-7.2-3.427-9.505-4.052-15.074-4.085-5.714-.034-7.063.333-10.3 2.799l-3.724 2.839.299 24.161L.5 142.5l5.75 11.55c4.751 9.543 5.75 12.44 5.75 16.677C12 201.149 25.133 221 45.259 221h4.902l-.719 17-.719 17h158.554l-.719-17-.719-17h4.902c20.35 0 33.259-19.875 33.259-51.209 0-3.724 1.04-6.78 4.777-14.026 8.613-16.707 8.223-14.798 8.223-40.268 0-12.557-.287-22.543-.639-22.192-.351.352-1.939-.455-3.529-1.793-5.885-4.952-13.72-4.545-26.276 1.366-12.378 5.827-25.473 15.09-42.36 29.965-5.991 5.277-7.209 6.004-6.779 4.045.288-1.313 1.489-11.571 2.669-22.795 3.993-37.985 1.255-56.471-10.307-69.607-5.78-6.566-12.38-9.662-20.125-9.441-4.624.132-7.397-.404-11.154-2.159-6.868-3.208-20.533-3.679-28.738-.99m96.725 38.329c-.543 1.224-2.425 3.188-4.183 4.364l-3.196 2.139 2.492 1.136c1.371.624 3.259 2.483 4.196 4.129 2.042 3.589 2.435 3.672 3.717.782.543-1.224 2.362-3.145 4.042-4.269l3.054-2.043-3.054-1.991c-1.68-1.095-3.499-2.999-4.042-4.231-1.238-2.809-1.785-2.812-3.026-.016M26.309 72.636c-1.473 3.839 3.84 6.66 6.024 3.198.763-1.209.69-2.101-.263-3.25-1.711-2.061-4.961-2.032-5.761.052m24.4 1.988c-.39.39-.709 1.486-.709 2.434 0 .985-1.026 1.983-2.39 2.325-4.347 1.091-4.387 6.133-.057 7.22 1.384.347 2.457 1.462 2.64 2.741.417 2.929 4.944 2.981 6.223.072.503-1.147 1.853-2.497 3-3C60.728 85.839 61.5 84.574 61.5 83c0-1.574-.772-2.839-2.084-3.416-1.147-.503-2.497-1.853-3-3-.92-2.093-4.384-3.283-5.707-1.96m139.331 9.828c-1.914 2.306-.837 5.012 2.133 5.356 1.977.23 2.826-.23 3.324-1.798 1.226-3.864-2.946-6.584-5.457-3.558M.431 117.5c.001 13.2.143 18.462.316 11.693.174-6.769.173-17.569-.001-24C.572 98.762.431 104.3.431 117.5m217.878 115.136c-.827 2.156.95 4.864 3.191 4.864.98 0 2.24-.726 2.8-1.614 1.528-2.422.116-4.886-2.8-4.886-1.45 0-2.835.71-3.191 1.636" fill="#1976D2" fill-rule="evenodd"/><path fill-opacity=".423" d="M158.488 2.385c-2.501 1.829-1.521 5.115 1.526 5.115 1.939 0 2.553-.577 2.79-2.622.358-3.083-1.803-4.331-4.316-2.493m34.661 4.796l.351 6.182-8.699.068c-9.462.075-12.155 1.229-10.146 4.347.65 1.008 1.884 1.52 2.978 1.236 1.027-.268 4.044-.488 6.705-.49 3.638-.004 5.189.477 6.257 1.937 1.328 1.816 1.097 2.063-3.524 3.787C181.694 26.254 176 31.827 176 35.084c0 1.109.683 3.336 1.518 4.951 2.101 4.062 6.396 5.025 16.008 3.589l5.027-.75 1.309 3.62c2.38 6.582 8.424 6.578 12.739-.008 1.112-1.697 2.544-2.486 4.514-2.486 3.668 0 6.885-3.182 6.885-6.812 0-1.977.908-3.484 3.06-5.074 3.691-2.729 5.013-5.86 3.694-8.754-.978-2.147-4.648-4.36-7.231-4.36-1.058 0-1.183-.698-.533-2.966.884-3.081 1.285-7.533 1.111-12.323L224 .922l-8.744.289-8.744.289-2.084 5.236c-1.858 4.667-2.273 5.098-3.823 3.965-.956-.699-1.992-3.168-2.303-5.486-.491-3.663-.889-4.215-3.035-4.215-2.397 0-2.459.18-2.118 6.181m19.544-3.394c-1.99 2.199-4.693 8.511-4.693 10.96C208 16.658 219.795 29 221.622 29c.587 0 1.83-.842 2.762-1.872 1.623-1.793 1.51-1.917-2.733-2.986-2.434-.613-4.686-1.79-5.002-2.615-.317-.825.139-4.4 1.014-7.943.874-3.543 1.299-7.599.944-9.013-.762-3.035-3.543-3.404-5.914-.784M197 18.27C197 19.9 215.136 38 216.769 38c2.807 0 .735-3.033-8.038-11.77C199.887 17.423 197 15.464 197 18.27m-84.917 3.26c-8.163 2.283-15.847 7.086-23.185 14.492C76.16 48.879 71.66 63.361 73.925 84.206c.927 8.537 5.682 36.981 7.623 45.604.396 1.758-1.94.169-9.764-6.642-14.81-12.893-27.48-22.134-37.519-27.366C17.882 87.264 11.67 86.413 3.7 91.615l-3.8 2.48.3 23.898.3 23.898 5.947 11.636 5.947 11.637.73 12.168c.828 13.791 3.04 22.132 7.863 29.647C26.536 215.626 36.356 221 46.609 221h4.246l-.401 5.25c-.927 12.131-1.334 25.899-.807 27.273.858 2.235 155.848 2.235 156.706 0 .527-1.374.12-15.142-.807-27.273l-.401-5.25h4.246c10.253 0 20.073-5.374 25.622-14.021 4.8-7.479 7.016-15.848 7.94-29.979l.817-12.5 5.365-10.513c8.321-16.306 7.865-14.062 7.865-38.686 0-12.266-.337-22.191-.75-22.057-.412.134-2.325-.728-4.25-1.916-7.841-4.839-14.248-3.912-29.959 4.334-10.199 5.353-20.011 12.339-34.041 24.237-5.775 4.898-10.637 8.774-10.804 8.615-.167-.158.698-8.552 1.922-18.651 3.129-25.817 3.129-45.618-.001-56.638-5.169-18.202-17.581-29.447-30.854-27.951-3.465.39-5.79-.084-10.112-2.062-7.001-3.205-18.069-3.92-26.068-1.682m76.947 8.053c-4.54 1.969-7.03 4.291-7.03 6.553 0 2.777 4.304 3.323 11.74 1.488 5.993-1.479 6.757-1.484 8.33-.061.953.862 2.03 3.157 2.395 5.1.641 3.421.723 3.477 2.599 1.779 1.065-.963 1.936-2.258 1.936-2.876 0-1.969-12.457-13.568-14.527-13.527-1.085.022-3.535.717-5.443 1.544M139.405 63.11c-2.616 2.898-13.528 8.262-22.111 10.869-11.102 3.373-17.17 7.501-20.605 14.021-2.716 5.154-2.863 6.023-2.338 13.814.929 13.776 6.919 23.75 17.833 29.69 7.342 3.995 18.756 4.656 26.963 1.56 15.376-5.801 22.761-19.91 21.64-41.344-.585-11.189-1.699-13.532-9.79-20.6-3.387-2.959-6.644-6.446-7.238-7.75-1.326-2.91-1.929-2.946-4.354-.26M51.69 75.154c-.93.52-1.69 1.792-1.69 2.826 0 1.189-.827 1.998-2.25 2.2-1.648.235-2.25.989-2.25 2.82s.602 2.585 2.25 2.82c1.386.196 2.25 1.013 2.25 2.127 0 4.268 5.583 4.953 6.192.759.19-1.309 1.268-2.349 2.808-2.71 3.425-.803 3.282-4.094-.25-5.787-1.525-.731-2.75-2.137-2.75-3.157 0-2.261-2.049-3.164-4.31-1.898m58.625 11.853c-4.004 1.613-5.881 8.178-2.688 9.403 1.875.72 4.373-1.012 4.373-3.032 0-2.106 1.203-1.656 3.594 1.343 1.872 2.347 2.392 2.536 3.788 1.377 2.35-1.95 2.001-3.869-1.305-7.175-3.074-3.074-4.199-3.351-7.762-1.916m27.608 1.916c-3.205 3.205-3.654 5.225-1.55 6.972 1.786 1.482 4.295.484 4.935-1.964.576-2.203 2.692-2.638 2.692-.553 0 .757.675 1.937 1.5 2.622 1.197.993 1.803.993 3 0 2.203-1.828 1.832-4.759-.955-7.545-3.236-3.237-6.054-3.099-9.622.468M.379 117c.029 12.925.195 18.021.367 11.324l.314-12.175 5.167-2.575c13.913-6.933 37.119 1.264 66.91 23.635 8.821 6.624 10.737 7.51 9.55 4.418-.819-2.134-22.301-20.961-33.522-29.378-12.87-9.655-28.748-17.634-35.092-17.634-5.367 0-9.344 2.351-11.306 6.683-1.249 2.758-1.275 2.722-1.854-2.5C.59 95.884.35 104.075.379 117m234.784-21.041c-12.778 4.676-27.337 14.446-46.913 31.483-8.161 7.103-12.25 11.34-12.25 12.696 0 1.864.357 1.766 4.25-1.164 31.516-23.725 55.45-32.52 69.331-25.478 2.705 1.373 5.032 2.498 5.169 2.5.137.002.25-2.515.25-5.595 0-12.92-8.026-18.763-19.837-14.442m-122.12 16.014c-3.613 2.233 2.801 8.318 10.061 9.545 8.614 1.455 19.008-2.395 19.716-7.302.411-2.85-2.013-2.922-7.32-.216-5.278 2.691-11.165 2.551-16.709-.397-2.56-1.361-5.043-2.065-5.748-1.63M9.415 118.421c-1.696.739-4.025 2.539-5.175 4.001l-2.091 2.658 1.986 7.164C9.574 151.872 18.46 165.262 31.5 173.48c5.216 3.287 13.13 6.826 17.623 7.879 2.498.586 2.653.384 3.268-4.251 1.321-9.954 6.933-14.794 21.123-18.215 12.182-2.937 12.503-4.339 2.751-12.003-16.945-13.317-36.553-24.819-48.209-28.281-6.529-1.939-14.436-2.018-18.641-.188m217.585.403c-12.671 4.191-32.161 15.71-45.75 27.039-5.055 4.213-6.25 5.769-6.25 8.135 0 2.603.468 3.045 4.25 4.018 13.059 3.357 15.285 4.283 18.845 7.844 3.533 3.532 5.888 9.085 5.899 13.909.005 1.965.375 2.182 2.756 1.622 13.755-3.236 28.393-13.974 35.439-25.996 7.047-12.024 12.349-28.732 10.2-32.141-3.759-5.958-14.895-7.901-25.389-4.43M21.357 130.992c-2.724 1.099-5.357 4.826-5.357 7.583 0 1.171 1.026 3.651 2.28 5.512 7.178 10.652 25.12 10.458 25.12-.272 0-8.915-12.995-16.475-22.043-12.823m199.883 1.061c-12.301 6.254-11.224 19.975 1.566 19.931 8.092-.029 17.194-7.215 17.194-13.576 0-7.064-10.421-10.594-18.76-6.355m-198.848 5.369c-1.444 3.763 4.73 8.578 10.999 8.578 4.093 0 5.128-1.162 3.591-4.033-2.541-4.748-13.234-8.08-14.59-4.545m200.922.528c-3.458 2.108-5.767 5.509-4.801 7.071.92 1.488 7.218 1.17 10.507-.531 3.299-1.706 5.403-4.946 4.588-7.068-.788-2.056-6.541-1.761-10.294.528M114 142.998c0 2.274-.468 5.009-1.041 6.078-1.911 3.571-17.607 10.418-32.951 14.375-7.971 2.056-15.283 4.161-16.25 4.679-4.774 2.555-5.002 4.01-6.986 44.588-1.037 21.2-1.649 39.161-1.36 39.914.391 1.018 2.838 1.368 9.557 1.368H74v-27.418c0-15.08.273-28.13.607-29 .764-1.992 4.025-2.062 5.118-.109.686 1.225 1.578.97 5.3-1.516 9.493-6.34 23.592-7.806 36.154-3.76l6.821 2.197 6.821-2.197c12.562-4.046 26.661-2.58 36.154 3.76 3.722 2.486 4.614 2.741 5.3 1.516 1.093-1.953 4.354-1.883 5.118.109.334.87.607 13.92.607 29V254h8.941c5.018 0 9.218-.449 9.573-1.023.635-1.027-2.122-67.613-3.142-75.89-.906-7.358-3.569-9.086-20.872-13.546-15.853-4.086-31.533-10.865-33.459-14.465-.573-1.069-1.041-3.823-1.041-6.119 0-4.095-.052-4.158-2.75-3.315-3.497 1.091-20.027 1.121-23 .041-2.102-.764-2.25-.546-2.25 3.315m-95.467 35.074c.38 4.085 1.008 9.003 1.396 10.928l.706 3.5 1.631-3.102c.898-1.705 3.186-4.466 5.086-6.133l3.453-3.033-3.152-2.294a626.665 626.665 0 01-6.481-4.794l-3.328-2.501.689 7.429m212.856-2.319l-6.111 4.552 3.412 2.996c1.877 1.648 4.097 4.321 4.935 5.94.837 1.62 1.703 2.765 1.923 2.544.518-.518 2.685-19.891 2.268-20.286-.174-.164-3.066 1.75-6.427 4.254m-199 10.722c-4.075 3.212-6.143 6.475-7.262 11.457-.817 3.634-.617 4.471 1.888 7.93C30.823 211.119 38.758 215 45.696 215H51v-7.353c0-4.045.283-10.058.628-13.364l.628-6.01-7.033-2.137c-8.762-2.661-9.038-2.654-12.834.339m177.732-.244l-6.38 2.02.63 6.021c.346 3.312.629 9.33.629 13.375V215h5.304c10.877 0 22.387-9.017 20.749-16.254-1.161-5.125-3.772-9.43-7.396-12.194-3.913-2.985-5.04-3.011-13.536-.321M96.994 196.934c-4.693 1.428-9.487 4.28-13.244 7.879-3.514 3.366-3.75 3.969-3.75 9.564v5.972l2.25-2.058c3.097-2.832 8.191-5.292 10.95-5.288 1.265.002 5.428 1.578 9.25 3.504 3.946 1.987 7.72 3.256 8.731 2.936.979-.311 4.35-2.113 7.491-4.004 7.451-4.487 11.205-4.487 18.656 0 3.141 1.891 6.512 3.693 7.491 4.004 1.011.32 4.785-.949 8.731-2.936 3.822-1.926 7.985-3.502 9.25-3.504 2.759-.004 7.853 2.456 10.95 5.288l2.25 2.058v-5.972c0-5.594-.237-6.198-3.75-9.568-6.196-5.943-11.582-8.113-21.25-8.562-6.765-.313-9.706.029-14.407 1.68-7.344 2.578-9.782 2.588-17.093.073-5.972-2.055-17.466-2.599-22.506-1.066m22.688 24.666c-7.313 4.574-10.944 4.627-19.908.291-6.785-3.283-6.867-3.295-10.057-1.553-1.77.966-4.679 3.079-6.467 4.695L80 227.972V254h96v-26.028l-3.25-2.939c-1.787-1.616-4.697-3.729-6.467-4.695-3.19-1.742-3.272-1.73-10.057 1.553-8.942 4.326-12.538 4.273-19.933-.291-3.208-1.98-6.963-3.6-8.344-3.6-1.381 0-5.101 1.62-8.267 3.6" fill="#1976D2" fill-rule="evenodd"/><path fill-opacity=".984" d="M193.07 4.25c.039 1.788.435 4.15.881 5.25 1.33 3.284-1.409 5.585-5.111 4.294-3.324-1.158-11.421-.386-13.43 1.28-2.844 2.361-.406 3.548 7.157 3.487 5.625-.046 7.736.314 8.45 1.439 1.516 2.388 1.282 2.646-4.545 5.011C179.753 27.738 177 30.95 177 36.062c0 2.943.616 4.281 2.75 5.972 2.363 1.873 3.595 2.102 8.75 1.629 3.3-.303 6.932-.833 8.071-1.177 1.719-.519 2.342.065 3.67 3.445.879 2.239 2.311 4.343 3.181 4.677 2.802 1.076 6.666-.599 8.395-3.638 1.233-2.166 2.431-2.959 4.478-2.964 3.381-.007 7.705-4.015 7.705-7.14 0-1.273 1.527-3.623 3.571-5.495 5.004-4.584 4.558-8.115-1.373-10.868-3.459-1.606-4.191-2.39-3.736-4 1.213-4.296 1.76-10.481 1.145-12.932-.519-2.07-1.249-2.571-3.748-2.571-2.647 0-2.92.221-1.858 1.502 1.206 1.452 1.041 5.85-.588 15.63-.665 3.996.017 4.8 4.925 5.803 3.974.813 4.398 2.537 1.148 4.666l-2.639 1.729-6.983-6.984-6.984-6.983 1.186-4.711c.652-2.591 2.435-6.047 3.961-7.681L214.802 1h-3.749c-3.387 0-3.901.362-5.316 3.75-.862 2.063-1.816 4.537-2.121 5.5-.304.963-1.227 1.75-2.049 1.75C199.515 12 198 8.842 198 4.566 198 1.429 197.699 1 195.5 1c-2.168 0-2.491.431-2.43 3.25m3.257 13.34c-.425 1.108 2.384 4.595 9.263 11.5 5.43 5.451 10.458 9.91 11.173 9.91.715 0 1.574-.716 1.91-1.59.425-1.108-2.384-4.595-9.263-11.5-5.43-5.451-10.458-9.91-11.173-9.91-.715 0-1.574.716-1.91 1.59M116 21.106c-18.122 3.003-37.148 21.838-41.051 40.64-1.913 9.214-.683 26.41 3.509 49.062 2.067 11.17 3.497 20.57 3.177 20.89-.32.32-3.419-2.069-6.887-5.308-14.919-13.935-31.903-26.157-45.243-32.558-12.473-5.986-20.366-6.344-26.476-1.203-2.743 2.308-3.02 3.083-2.939 8.21.082 5.113.179 5.356 1.002 2.513.502-1.732 2.559-4.594 4.571-6.361 3.324-2.918 4.133-3.173 8.853-2.781 5.997.497 17.428 5.605 27.442 12.262 14.87 9.886 40.583 32.346 41.295 36.072.258 1.351.161 2.456-.217 2.456-.377 0-3.353-2.09-6.611-4.644-14.749-11.56-33.019-22.177-45.262-26.301-8.849-2.981-19.424-2.821-25.452.384l-4.588 2.439-.466-2.189c-.256-1.204-.396 4.12-.311 11.831L.5 140.541l6.25 12.62c5.725 11.56 6.25 13.166 6.25 19.099 0 3.563.675 10.349 1.5 15.081 3.621 20.76 13.216 31.283 30.288 33.214l6.276.711-.685 16.867L49.694 255h3.188c2.716 0 3.054-.259 2.28-1.75-.533-1.026-.576-8.162-.104-17.25.442-8.525 1.312-25.814 1.934-38.419 1.242-25.165 1.842-27.636 7.303-30.105 1.763-.797 9.478-3.069 17.146-5.048 14.801-3.82 28.263-9.739 30.984-13.624.866-1.237 1.575-4.001 1.575-6.143 0-3.563.192-3.839 2.25-3.251 5.332 1.526 15.436 1.675 20.5.304l5.25-1.421v4.131c0 2.272.709 5.143 1.575 6.38 2.751 3.927 16.104 9.761 31.438 13.734 7.968 2.064 15.717 4.371 17.22 5.125 4.929 2.473 5.557 5.246 6.775 29.918.622 12.605 1.492 29.894 1.934 38.419.472 9.088.429 16.224-.104 17.25-.774 1.491-.436 1.75 2.28 1.75h3.188l-.685-16.867-.685-16.867 6.276-.711c17.072-1.931 26.667-12.454 30.288-33.214.825-4.732 1.5-11.518 1.5-15.081 0-5.879.563-7.646 6.095-19.119 3.353-6.953 6.503-13.422 7-14.377 1.274-2.445 1.184-27.055-.095-26.264-.55.34-1 1.479-1 2.531 0 1.793-.296 1.753-4.75-.644-4.315-2.322-5.575-2.518-13.75-2.148-7.29.329-10.441 1.015-16.585 3.608-10.51 4.437-23.716 12.166-34.665 20.287-9.083 6.738-9.25 6.812-9.237 4.114.01-2.203 1.843-4.364 9.25-10.903 25.377-22.405 44.196-34.138 56.376-35.148 5.148-.427 5.501-.292 9.355 3.562 2.221 2.221 4.006 4.976 4.006 6.182 0 1.198.45 1.899 1 1.559.55-.34 1-3.141 1-6.226 0-3.084-.287-5.32-.639-4.969-.351.352-1.939-.455-3.529-1.793-5.966-5.02-13.961-4.619-26.337 1.32-12.867 6.174-29.185 17.806-44.098 31.436-3.007 2.748-5.605 4.824-5.775 4.614-.169-.21.728-9.382 1.994-20.382 2.624-22.805 2.996-42.958.968-52.5-4.016-18.898-15.553-31.336-28.955-31.214-2.821.025-5.579.155-6.129.289-.55.133-3.475-.91-6.5-2.318-6.419-2.988-14.263-3.933-22-2.651m.045 4.933c-9.876 2.055-20.134 9.072-28.223 19.306-2.14 2.706-3.756 5.054-3.593 5.217.163.163 3.634-1.293 7.713-3.236 22.294-10.618 52.013-11.58 73.45-2.376 2.69 1.155 5.085 1.906 5.322 1.67.845-.846-4.639-8.413-8.26-11.398-4.477-3.69-9.984-5.222-15.285-4.253-3.237.592-5.025.21-9.814-2.096-6.578-3.168-14.588-4.233-21.31-2.834m75.949 1.895c-7.878 2.397-12.305 6.782-9.842 9.749 1.046 1.26 2.529 1.423 7.819.856 12.852-1.377 12.313-1.492 13.559 2.902 1.383 4.876 2.831 5.464 5.064 2.055l1.722-2.627-6.881-6.935c-7.124-7.178-7.287-7.264-11.441-6M114 45.496c-8.793 1.77-19.13 5.777-27.118 10.513C79.212 60.556 79 61.082 79 75.564c0 8.634 1.08 16.157 7.096 49.436 1.045 5.775 2.193 14.887 2.552 20.25.36 5.363 1.066 9.75 1.569 9.75 1.97 0 16.355-7.155 17.533-8.721.688-.914 1.25-3.54 1.25-5.837 0-3.743-.403-4.443-3.879-6.743-4.976-3.293-10.478-10.022-13.31-16.279-1.758-3.882-2.311-7.276-2.625-16.091-.381-10.715-.282-11.381 2.408-16.324 4.243-7.796 11.725-12.972 23.757-16.436 12.829-3.692 23.514-10.453 25.729-16.28 1.257-3.305 4.721-3.014 5.491.461 1.674 7.563 2.854 9.476 9.462 15.35 9.52 8.461 10.249 10.654 9.808 29.54-.321 13.736-.555 15.305-3.1 20.744-1.795 3.836-5.014 8.069-9.247 12.158-5.81 5.613-6.494 6.685-6.494 10.175 0 2.145.563 4.648 1.25 5.562 1.305 1.735 14.348 8.011 18.852 9.072l2.603.613.577-11.232c.318-6.178 1.775-21.582 3.239-34.232 3.162-27.34 3.27-50.117.26-54.712-2.06-3.143-13.597-7.852-24.989-10.2-9.18-1.891-25.634-1.935-34.792-.092m25.5 17.098c-4.205 3.534-12.972 7.891-21.098 10.484-10.237 3.268-15.757 6.35-19.775 11.045-4.268 4.986-5.022 8.259-4.42 19.186.531 9.627 3.458 16.356 9.929 22.827 6.379 6.379 13.73 9.308 23.364 9.308 6.497 0 9.034-.483 13.5-2.569 7.174-3.351 13.545-9.673 16.849-16.72 2.357-5.027 2.688-7.087 2.983-18.545.423-16.404-.657-19.689-8.452-25.703-3.035-2.341-6.396-5.978-7.469-8.082-1.073-2.104-2.055-3.809-2.181-3.789-.127.02-1.58 1.171-3.23 2.558M108.745 88.75c-1.537 1.719-2.098 3.525-1.863 6 .186 1.962 2.934 1.462 4.118-.75 1.386-2.59 3.687-2.561 4.518.057.845 2.661 3.881 2.126 4.293-.756.713-4.984-7.616-8.41-11.066-4.551m29.194.311c-1.145 1.145-1.923 3.031-1.75 4.24.412 2.882 3.448 3.417 4.293.756.831-2.618 3.132-2.647 4.518-.057 1.184 2.212 3.932 2.712 4.118.75.64-6.747-6.492-10.376-11.179-5.689M.31 100.5c.005 3.3.192 4.529.415 2.732.222-1.797.218-4.497-.01-6C.486 95.729.304 97.2.31 100.5m111.996 13.145c-1.267 3.303 7.332 7.498 15.37 7.498 8.544 0 17.645-5.222 14.531-8.336-.746-.746-2.62-.282-6.33 1.567-6.574 3.276-10.2 3.305-16.458.13-5.818-2.952-6.288-3.009-7.113-.859M.392 126c0 7.425.157 10.463.35 6.75.192-3.713.192-9.787 0-13.5-.193-3.713-.35-.675-.35 6.75m10.191-8.517c-2.154.768-5.074 2.553-6.488 3.968l-2.572 2.572 2.258 8.738c6.392 24.73 22.003 42.153 43.589 48.65 2.488.749 4.773 1.113 5.077.809.304-.305.553-2.296.553-4.427 0-5.081 3.3-11.397 7.192-13.764 1.711-1.04 6.756-2.841 11.21-4 15.458-4.025 15.854-5.012 5.348-13.343-18.128-14.375-39.074-26.372-50.92-29.164-7.743-1.826-10.214-1.832-15.247-.039m218.417.434c-12.759 3.525-27.99 12.044-44.901 25.114-8.639 6.677-9.099 7.224-9.099 10.837v3.805l7.956 1.817c4.375.999 9.654 2.77 11.729 3.934 4.75 2.664 8.277 8.727 8.299 14.267.009 2.305.377 4.414.818 4.687 1.202.743 13.042-3.622 18.718-6.901 2.739-1.582 8.139-6.049 12-9.927 8.254-8.289 14.269-19.497 17.77-33.11l2.21-8.594-3.197-2.861c-3.286-2.942-8.894-5.016-13.303-4.919-1.375.03-5.425.863-9 1.851M19.174 133.314c-1.326 1.412-2.174 3.603-2.174 5.618 0 6.784 11.377 14.242 19.128 12.54 6.491-1.426 8.794-7.964 4.788-13.59-4.735-6.649-17.305-9.29-21.742-4.568m201.656-.287c-9.793 5.173-10.375 16.377-.958 18.445 7.846 1.723 19.128-5.756 19.128-12.68 0-7.306-9.529-10.329-18.17-5.765m-198.257 3.542c-3.875 3.876 6.223 11.703 12.927 10.02 5.386-1.351 1.597-8.554-5.583-10.613-4.586-1.315-5.51-1.24-7.344.593m203.046-.555c-6.784 2.079-10.271 9.282-5.119 10.575 4.51 1.132 11.054-2.019 13.437-6.47 1.871-3.498-2.791-5.798-8.318-4.105M18.271 179.202c.315 5.114.992 10.413 1.507 11.776l.935 2.478 1.579-3.053c.868-1.679 3.331-4.636 5.472-6.571l3.894-3.517-6.979-5.205-6.979-5.205.571 9.297m212.647-3.945l-6.582 5.052 3.897 3.52c2.143 1.936 4.607 4.895 5.475 6.574l1.579 3.053.935-2.478c.934-2.475 2.426-21.069 1.675-20.876-.218.057-3.359 2.376-6.979 5.155M32.719 185.648c-4.674 3.357-7.43 7.69-8.283 13.026-.597 3.735-.332 4.436 3.138 8.276 4.864 5.384 10.339 8.141 17.447 8.786l5.666.513.65-6.874c.357-3.781.652-10.26.656-14.396l.007-7.522-5.75-1.627c-3.163-.895-6.65-1.913-7.75-2.262-1.328-.422-3.27.277-5.781 2.08M216 183.991c-.825.528-3.863 1.492-6.75 2.143l-5.25 1.184.007 7.591c.004 4.175.299 10.685.656 14.466l.65 6.874 5.666-.513c7.063-.641 12.579-3.398 17.339-8.666 3.967-4.392 4.313-5.923 2.522-11.171-1.45-4.248-3.956-7.533-8.05-10.554-3.492-2.576-4.551-2.788-6.79-1.354m-119.816 7.505c-5.239 1.475-13.639 5.813-14.756 7.62-.315.51-1.367-.054-2.338-1.254-3.719-4.591-4.09-2.03-4.09 28.197V255h5v-27.866l4.25-3.435c7.786-6.293 7.979-6.318 16.399-2.158 8.952 4.424 11.716 4.287 19.517-.967C123.085 218.608 126.61 217 128 217c1.39 0 4.915 1.608 7.834 3.574 7.801 5.254 10.565 5.391 19.517.967 8.42-4.16 8.613-4.135 16.399 2.158l4.25 3.435V255h5v-28.941c0-29.909-.412-32.912-3.895-28.408-1.52 1.965-1.588 1.955-5.739-.846-6.933-4.679-12.028-6.127-21.866-6.216-7.186-.065-10.265.398-15.272 2.295l-6.273 2.377-5.691-2.179c-7.463-2.855-19.064-3.561-26.08-1.586m2.316 4.457c-5.623 1.402-10.274 3.848-14.39 7.566-3.996 3.611-4.11 3.89-4.11 10.097 0 6.488.723 7.628 3.055 4.818 2.005-2.416 6.522-4.434 9.924-4.434 1.693 0 5.752 1.35 9.021 3 3.269 1.65 6.88 3 8.026 3s5.068-1.8 8.716-4c3.647-2.2 7.814-4 9.258-4 1.444 0 5.611 1.8 9.258 4 3.648 2.2 7.57 4 8.716 4 1.146 0 4.757-1.35 8.026-3s7.328-3 9.021-3c3.402 0 7.919 2.018 9.924 4.434 2.332 2.81 3.055 1.67 3.055-4.818 0-6.199-.118-6.49-4.08-10.07-5.408-4.885-11.949-7.573-20.102-8.261-5.547-.468-8.139-.099-15.268 2.17l-8.585 2.734-8.044-2.594c-8.035-2.592-15.361-3.153-21.421-1.642" fill="#1976D2" fill-rule="evenodd"/></svg>